<svg width="55" height="38" viewBox="0 0 55 38" fill="none" xmlns="http://www.w3.org/2000/svg">
<g clip-path="url(#clip0)">
<path d="M54.1749 26.0869C53.3624 24.2128 51.9 22.8206 49.896 22.0174C48.2712 21.3748 46.4838 21.1607 44.6964 21.4819L43.9923 19.9827V17.8944C44.3715 18.055 44.7506 18.1086 45.1839 18.1086H47.6212C48.4878 18.1086 49.1919 17.4125 49.1919 16.5557V12.7005C49.1919 11.8437 48.4878 11.1476 47.6212 11.1476H45.2381C44.8048 11.1476 44.4256 11.2012 44.0465 11.3618V9.05935C44.0465 8.68454 43.9382 8.36326 43.7757 8.04199C43.5049 7.39944 42.9091 6.97108 42.2591 6.86399L41.23 4.50798C41.6092 4.24025 41.8258 3.81189 41.8258 3.32998V2.20552C41.8258 1.45588 41.2842 0.866878 40.4718 0.759787L37.0054 0.0636941C36.6262 0.0101485 36.2471 0.11724 35.9221 0.331422C35.5971 0.59915 35.3805 1.08106 35.3805 1.50943V3.27643C35.3805 4.07961 36.0304 4.77571 36.897 4.77571H39.876L40.7426 6.75689H37.2762C35.9763 6.75689 35.2722 7.66717 35.2722 8.63099C35.218 9.59481 35.9221 10.6122 37.222 10.6657L39.9843 10.8264V13.0217C39.4427 12.6469 38.7386 12.3256 37.9261 12.1115C35.4346 11.4154 32.1307 11.6295 29.9101 12.7005V14.2533C31.6974 13.0217 35.1097 12.754 37.547 13.3965C38.3053 13.6107 39.9843 14.1997 39.9843 15.3777V19.0188H29.8559V20.411H35.9221L35.1638 21.4819H30.9933C30.6142 21.4819 30.2892 21.8032 30.2892 22.178C30.2892 22.5528 30.6142 22.8741 30.9933 22.8741H34.1889L32.3474 25.2301C31.8599 24.7482 31.1558 24.4269 30.4517 24.4269C29.7476 24.4269 29.0435 24.6947 28.556 25.2301C28.1227 25.712 27.8519 26.301 27.7977 26.9436C27.7977 27.1042 27.7977 27.2649 27.7977 27.4255H23.5731C23.5731 26.9971 23.4106 26.5152 23.3023 26.1939L27.4186 21.8032H25.5229L22.6523 24.8553C22.0024 23.7844 21.0816 22.9277 19.89 22.3387L19.9983 21.8032H18.5901L18.4276 22.5528C18.4276 22.5528 18.4276 22.5528 18.4276 22.6064L17.1819 27.961L16.8569 29.3531C16.8569 29.3531 16.8569 29.3531 16.8569 29.4067C16.6944 30.1563 16.1528 30.2634 15.8278 30.2099C15.6653 30.1563 15.0696 29.9957 15.232 29.139L15.3945 28.2822C15.3945 28.2822 15.3945 28.2822 15.3945 28.2287L16.7486 21.8032H12.6864C10.5741 22.4458 8.73255 23.7844 8.13676 25.8727C7.81178 26.9436 7.92011 27.7468 8.29925 28.2822C8.40757 28.3893 8.57006 28.55 8.78671 28.657C8.67838 29.139 8.62422 29.5673 8.62422 30.0492C8.62422 33.9581 11.874 37.1708 15.8278 37.1708C19.1859 37.1708 22.1107 34.8148 22.8148 31.6021H25.9021C26.2812 31.6021 26.6062 31.2808 26.6062 30.906C26.6062 30.5311 26.2812 30.2099 25.9021 30.2099H17.9402C17.9943 30.0492 18.1027 29.835 18.1027 29.6209L18.3193 28.7641H28.6102H30.0184C31.0475 28.7641 31.5891 28.4964 32.1849 27.6932L35.9763 22.5528L37.547 20.411H39.7676L33.1598 29.0319C33.1598 29.0319 33.1598 29.0319 33.1598 29.0854C32.4016 30.2099 31.6433 30.2099 31.3725 30.2099H28.6643C28.2852 30.2099 27.9602 30.5311 27.9602 30.906C27.9602 31.2808 28.2852 31.6021 28.6643 31.6021H31.3725C32.564 31.6021 33.539 31.0131 34.2972 29.9421L40.5259 21.9103L41.0675 22.9812C39.8218 23.7844 38.9552 24.9089 38.4677 26.1939C38.0886 27.2113 38.0886 28.0145 38.5219 28.55C38.6302 28.7641 38.901 28.9248 39.226 29.0854C39.1719 29.4067 39.1719 29.728 39.1719 30.0492C39.1719 33.9581 42.4216 37.1708 46.3755 37.1708C50.3293 37.1708 53.5791 34.0116 53.5791 30.0492C53.5791 29.728 53.5791 29.4067 53.5249 29.139C53.9582 28.9783 54.229 28.7641 54.3374 28.4964C54.7707 27.6397 54.3915 26.5152 54.1749 26.0869ZM43.9923 12.9146C44.3173 12.7005 44.7506 12.5398 45.1839 12.5398H47.6212C47.7295 12.5398 47.7837 12.5934 47.7837 12.7005V16.5557C47.7837 16.6628 47.7295 16.7164 47.6212 16.7164H45.2381C44.8048 16.7164 44.3715 16.6093 44.0465 16.3416V12.9146H43.9923ZM40.3093 3.43707H36.897C36.8429 3.43707 36.7887 3.38352 36.7887 3.32998V1.56297C36.7887 1.50943 36.7887 1.45588 36.8429 1.45588L40.2551 2.09843C40.4176 2.09843 40.5259 2.20552 40.5259 2.20552V3.38352C40.4176 3.38352 40.3634 3.43707 40.3093 3.43707ZM15.557 31.495C15.6112 31.495 15.6653 31.495 15.7195 31.495C15.7737 31.495 15.8278 31.495 15.882 31.495H17.8318C17.3444 32.084 16.5861 32.4588 15.7737 32.4588C14.3654 32.4588 13.228 31.3343 13.228 29.9421C13.228 29.5138 13.3364 29.0854 13.553 28.7106H13.8238V28.7641C13.6072 30.317 14.5279 31.2808 15.557 31.495ZM9.65331 27.372C9.65331 27.372 9.59915 27.372 9.65331 27.372C9.43666 27.372 9.3825 27.372 9.3825 27.372C9.32833 27.3184 9.22001 26.9971 9.49082 26.1939C10.0324 24.2663 12.4156 22.8741 15.1779 22.7135L14.1488 27.372H9.65331ZM19.4567 31.5485H21.4607C20.7566 34.0116 18.4818 35.7251 15.882 35.7251C12.6864 35.7251 10.0866 33.1549 10.0866 29.9957C10.0866 29.5673 10.1408 29.139 10.2491 28.7641H12.1989C12.0906 29.139 11.9823 29.5673 11.9823 29.9957C11.9823 32.1375 13.7697 33.9045 15.9362 33.9045C17.4527 33.9045 18.8609 32.9407 19.4567 31.5485ZM21.7315 27.372H18.6984L19.565 23.6773C20.5941 24.3198 21.4066 25.1766 21.8399 26.2475C22.0024 26.5688 22.1107 27.0507 22.1107 27.372H21.7315ZM31.1017 26.89C30.7767 27.3184 30.7225 27.372 30.0726 27.372H29.1518C29.0976 27.2649 29.0976 27.1042 29.0976 26.9971C29.0976 26.6759 29.2601 26.4081 29.4768 26.1939C29.7476 25.9262 30.0726 25.8191 30.3975 25.8191C30.8308 25.8191 31.2641 26.0333 31.4808 26.4081L31.1017 26.89ZM40.6884 9.54127L37.2762 9.32708C36.7887 9.27354 36.5721 8.95226 36.6262 8.68454C36.6262 8.5239 36.6804 8.14908 37.2762 8.14908H41.8258C42.1508 8.14908 42.4216 8.30972 42.5299 8.63099C42.5299 8.63099 42.5299 8.68454 42.5841 8.68454C42.6383 8.79163 42.6924 8.89872 42.6924 9.05935V12.5934V16.6628V20.0897C42.6924 20.1968 42.6924 20.3039 42.7466 20.3575L43.7215 22.4458C43.7215 22.4458 43.7215 22.4993 43.7757 22.4993L46.9171 29.1925C47.0796 29.5673 47.0254 29.835 46.7004 29.9957C46.4838 30.1028 46.1047 30.1028 45.9422 29.835L41.3384 20.411V19.7149V15.3777V10.2374C41.3384 9.86254 41.0134 9.59481 40.6884 9.54127ZM48.2712 29.1925H48.7045C48.8128 29.4602 48.8128 29.728 48.8128 29.9957C48.8128 31.3879 47.6754 32.5123 46.2671 32.5123C44.8589 32.5123 43.7215 31.3879 43.7215 29.9957C43.7215 29.728 43.7757 29.4602 43.8298 29.1925H44.0465L44.6964 30.4776C45.0214 31.1737 45.6714 31.4414 46.3213 31.4414C46.6463 31.4414 46.9713 31.3879 47.2421 31.2272C47.9462 30.906 48.4878 30.1563 48.2712 29.1925ZM39.551 27.6932C39.4968 27.5861 39.4427 27.2649 39.7135 26.5688C40.0926 25.6049 40.7426 24.7482 41.6092 24.1057L43.3965 27.8003H40.0385C39.7676 27.8003 39.6052 27.8003 39.551 27.6932ZM46.2671 35.7251C43.0716 35.7251 40.4718 33.1549 40.4718 29.9957C40.4718 29.728 40.4718 29.4602 40.5259 29.1925H42.4216C42.3674 29.4602 42.3133 29.728 42.3133 29.9957C42.3133 32.1375 44.1006 33.9045 46.2671 33.9045C48.4336 33.9045 50.221 32.1375 50.221 29.9957C50.221 29.728 50.1668 29.4602 50.1127 29.1925H52.0084C52.0625 29.4602 52.0625 29.728 52.0625 29.9957C52.0625 33.1549 49.4627 35.7251 46.2671 35.7251ZM53.0916 27.6932C53.0375 27.8003 52.875 27.8003 52.6042 27.8003H47.7295L45.3464 22.767C48.217 22.4458 51.5751 23.4631 52.9291 26.6223C53.1458 27.1042 53.1458 27.5326 53.0916 27.6932Z" fill="#414042"/>
<path d="M24.6565 15.4314V2.09852C24.6565 1.7237 24.3315 1.34888 23.8982 1.34888H1.25827C0.824975 1.40242 0.5 1.7237 0.5 2.09852V15.4314C0.5 15.8062 0.824975 16.1275 1.25827 16.1275H23.9524C24.3315 16.1275 24.6565 15.8062 24.6565 15.4314ZM23.1941 2.84815V14.7353H1.96239V2.84815H23.1941Z" fill="#19AA4B"/>
<path d="M6.07885 3.49072H2.8291V4.93646H6.07885V3.49072Z" fill="#19AA4B"/>
<path d="M22.3816 12.2722H19.1318V13.7179H22.3816V12.2722Z" fill="#19AA4B"/>
<path d="M12.5782 13.7177C15.3405 13.7177 17.5611 11.5223 17.5611 8.79151C17.5611 6.06068 15.3405 3.81177 12.5782 3.81177C9.81588 3.81177 7.59521 6.00714 7.59521 8.73796C7.59521 11.4688 9.81588 13.7177 12.5782 13.7177ZM9.0576 8.79151C9.0576 6.86387 10.6283 5.31104 12.5782 5.31104C14.528 5.31104 16.0987 6.86387 16.0987 8.79151C16.0987 10.7191 14.528 12.272 12.5782 12.272C10.6283 12.272 9.0576 10.6656 9.0576 8.79151Z" fill="#19AA4B"/>
<path d="M26.9856 4.45459C26.6064 4.45459 26.2273 4.77586 26.2273 5.20423V17.7339H4.29148C3.91234 17.7339 3.5332 18.0552 3.5332 18.4835C3.5332 18.9119 3.85818 19.2332 4.29148 19.2332H26.9856C27.3647 19.2332 27.7438 18.9119 27.7438 18.4835V5.15068C27.7438 4.77586 27.4189 4.45459 26.9856 4.45459Z" fill="#19AA4B"/>
</g>
<defs>
<clipPath id="clip0">
<rect width="54" height="37" fill="white" transform="translate(0.5 0.0637207)"/>
</clipPath>
</defs>
</svg>
