<svg width="17" height="23" viewBox="0 0 17 23" fill="none" xmlns="http://www.w3.org/2000/svg">
<path d="M13.0297 22.1227H3.46134C3.06757 22.1222 2.6888 21.9716 2.40221 21.7015C2.11563 21.4315 1.94278 21.0623 1.9189 20.6693L1.05865 6.39787C1.05617 6.3566 1.06217 6.31527 1.07627 6.27641C1.09037 6.23755 1.11228 6.20199 1.14065 6.17192C1.16902 6.14185 1.20324 6.1179 1.24122 6.10156C1.27919 6.08522 1.32011 6.07683 1.36145 6.0769H15.1302C15.1715 6.07683 15.2125 6.08522 15.2504 6.10156C15.2884 6.1179 15.3226 6.14185 15.351 6.17192C15.3794 6.20199 15.4013 6.23755 15.4154 6.27641C15.4295 6.31527 15.4355 6.3566 15.433 6.39787L14.5709 20.6693C14.5471 21.0621 14.3744 21.4311 14.0881 21.7011C13.8017 21.9711 13.4233 22.1219 13.0297 22.1227ZM1.68241 6.6825L2.52449 20.6341C2.53926 20.8728 2.64432 21.0969 2.81832 21.2609C2.99233 21.4249 3.22223 21.5165 3.46134 21.5171H13.0297C13.2692 21.5169 13.4996 21.4255 13.674 21.2614C13.8484 21.0973 13.9537 20.8729 13.9684 20.6338L14.8104 6.68219L1.68241 6.6825Z" fill="#4F4F4F"/>
<path d="M16.0106 6.68291H0.479554C0.399247 6.68291 0.32223 6.65101 0.265445 6.59423C0.20866 6.53744 0.176758 6.46042 0.176758 6.38012V5.09717C0.177399 4.52277 0.405861 3.97209 0.812021 3.56593C1.21818 3.15977 1.76887 2.93131 2.34326 2.93066H14.1472C14.7216 2.93131 15.2723 3.15977 15.6784 3.56593C16.0846 3.97209 16.313 4.52277 16.3137 5.09717V6.38012C16.3137 6.41991 16.3058 6.4593 16.2906 6.49606C16.2754 6.53282 16.253 6.56621 16.2249 6.59433C16.1967 6.62245 16.1633 6.64475 16.1265 6.65995C16.0898 6.67515 16.0504 6.68295 16.0106 6.68291ZM0.782047 6.07732H15.7078V5.09717C15.7073 4.68334 15.5427 4.28659 15.2501 3.99397C14.9574 3.70134 14.5607 3.53674 14.1469 3.53626H2.34296C1.92913 3.53674 1.53238 3.70134 1.23976 3.99397C0.947136 4.28659 0.782528 4.68334 0.782047 5.09717V6.07732Z" fill="#4F4F4F"/>
<path d="M11.0399 3.53467H5.44904C5.36873 3.53467 5.29171 3.50277 5.23493 3.44599C5.17814 3.3892 5.14624 3.31219 5.14624 3.23188V2.16028C5.14664 1.833 5.27683 1.51923 5.50826 1.2878C5.73969 1.05637 6.05345 0.926182 6.38074 0.925781H10.1082C10.4354 0.926182 10.7492 1.05637 10.9806 1.2878C11.2121 1.51923 11.3423 1.833 11.3427 2.16028V3.23188C11.3427 3.31219 11.3108 3.3892 11.254 3.44599C11.1972 3.50277 11.1202 3.53467 11.0399 3.53467ZM5.75183 2.92908H10.7371V2.16028C10.7369 1.99353 10.6706 1.83366 10.5527 1.71575C10.4348 1.59785 10.2749 1.53153 10.1082 1.53137H6.38074C6.21399 1.53153 6.05412 1.59785 5.93621 1.71575C5.8183 1.83366 5.75199 1.99353 5.75183 2.16028V2.92908Z" fill="#4F4F4F"/>
<path d="M11.293 19.0133C11.2127 19.0133 11.1357 18.9814 11.0789 18.9246C11.0221 18.8678 10.9902 18.7908 10.9902 18.7105V9.7547C10.9902 9.67439 11.0221 9.59738 11.0789 9.54059C11.1357 9.48381 11.2127 9.4519 11.293 9.4519C11.3733 9.4519 11.4504 9.48381 11.5071 9.54059C11.5639 9.59738 11.5958 9.67439 11.5958 9.7547V18.7105C11.5958 18.7908 11.5639 18.8678 11.5071 18.9246C11.4504 18.9814 11.3733 19.0133 11.293 19.0133Z" fill="#4F4F4F"/>
<path d="M8.24542 19.0133C8.16512 19.0133 8.0881 18.9814 8.03131 18.9246C7.97453 18.8678 7.94263 18.7908 7.94263 18.7105V9.7547C7.94263 9.67439 7.97453 9.59738 8.03131 9.54059C8.0881 9.48381 8.16512 9.4519 8.24542 9.4519C8.32573 9.4519 8.40275 9.48381 8.45953 9.54059C8.51632 9.59738 8.54822 9.67439 8.54822 9.7547V18.7105C8.54822 18.7908 8.51632 18.8678 8.45953 18.9246C8.40275 18.9814 8.32573 19.0133 8.24542 19.0133Z" fill="#4F4F4F"/>
<path d="M5.19684 19.0133C5.11653 19.0133 5.03952 18.9814 4.98273 18.9246C4.92594 18.8678 4.89404 18.7908 4.89404 18.7105V9.7547C4.89404 9.67439 4.92594 9.59738 4.98273 9.54059C5.03952 9.48381 5.11653 9.4519 5.19684 9.4519C5.27714 9.4519 5.35416 9.48381 5.41095 9.54059C5.46773 9.59738 5.49963 9.67439 5.49963 9.7547V18.7105C5.49963 18.7908 5.46773 18.8678 5.41095 18.9246C5.35416 18.9814 5.27714 19.0133 5.19684 19.0133Z" fill="#4F4F4F"/>
</svg>
