<svg width="65" height="49" viewBox="0 0 65 49" fill="none" xmlns="http://www.w3.org/2000/svg">
<g clip-path="url(#clip0)">
<path d="M42.8209 34.732C42.5808 34.7699 42.3407 34.8003 42.0931 34.8003C39.6771 34.8003 37.7187 32.8129 37.7187 30.378C37.7187 27.9431 39.6846 25.9558 42.0931 25.9558C42.1606 25.9558 42.2281 25.9634 42.2957 25.9634C42.8434 25.2579 43.5262 24.689 44.3065 24.3098C43.6162 24.0519 42.8734 23.9001 42.0931 23.9001C38.5591 23.9001 35.6929 26.8053 35.6929 30.3704C35.6929 33.9431 38.5666 36.8407 42.0931 36.8407C43.1735 36.8407 44.194 36.5677 45.0868 36.0822C44.239 35.8395 43.4587 35.3692 42.8209 34.732Z" fill="#03AB2C"/>
<path d="M53.1451 34.459H49.1309V36.3022H53.1451V34.459Z" fill="#03AB2C"/>
<path d="M33.907 24.2944H29.8928V26.1377H33.907V24.2944Z" fill="#03AB2C"/>
<path d="M39.3766 43.0913C38.8589 42.4466 38.1161 42.0446 37.2983 41.9763L26.1335 40.9599C26.3061 40.08 26.0285 39.1697 25.3682 38.5401L17.8275 31.3417C17.1522 30.6969 16.1993 30.3935 15.2765 30.5452L11.93 31.0762L12.3352 29.9005C12.4252 29.6425 12.4027 29.3695 12.2902 29.1267C12.1701 28.884 11.9676 28.702 11.7124 28.6109L5.55234 26.4567C5.29723 26.3657 5.02712 26.3809 4.78701 26.5022C4.54691 26.6236 4.36684 26.8284 4.2768 27.0863L0.0525105 39.4049C-0.0375276 39.6628 -0.0225212 39.9358 0.0975296 40.1786C0.21758 40.4213 0.420166 40.6034 0.675274 40.6944L6.82788 42.8486C7.08299 42.9396 7.3531 42.9169 7.5932 42.8031C7.8333 42.6817 8.01338 42.4769 8.10342 42.219L8.47107 41.1571L16.9347 47.9991C17.2048 48.219 17.5049 48.3859 17.835 48.4997C18.1577 48.6135 18.4878 48.6666 18.8255 48.6666C18.8555 48.6666 18.893 48.6666 18.923 48.6666L37.1182 48.0901C38.6113 48.0446 39.8644 46.8764 40.0369 45.3745C40.127 44.5477 39.8944 43.7361 39.3766 43.0913ZM10.0993 30.1963L6.53525 40.6034L2.28095 39.1166L5.84496 28.7096L10.0993 30.1963ZM15.5766 32.5477C15.8842 32.5022 16.2068 32.6008 16.4394 32.8208L23.9801 40.0193C24.2052 40.2393 24.2277 40.5958 24.0252 40.8385L23.7625 41.1495L23.7025 41.2178C23.4924 41.4453 23.1473 41.4681 22.9072 41.2785L17.1898 36.6286C16.9797 36.4542 16.7171 36.3859 16.4469 36.4087C16.1843 36.439 15.9442 36.568 15.7717 36.7803C15.4265 37.2127 15.494 37.8575 15.9217 38.2064L21.6391 42.8562C21.8717 43.0458 22.1269 43.19 22.412 43.2886C23.2448 43.5768 24.1677 43.4251 24.858 42.8865L37.1107 44.0016C37.3883 44.0243 37.6359 44.1609 37.8085 44.3809C37.9811 44.6008 38.0636 44.8739 38.0336 45.1546C37.9736 45.6628 37.5534 46.0572 37.0507 46.0724L18.8555 46.6337C18.6154 46.6489 18.3753 46.5578 18.1877 46.4061L9.16887 39.1242L11.1797 33.2456L15.5766 32.5477Z" fill="#414042"/>
<path d="M62.7267 0.666016H58.1347C57.1068 0.666016 56.1539 1.22733 55.6362 2.1224L52.4473 7.64452C52.1247 8.19825 51.622 8.63062 51.0217 8.85818L43.9913 11.5206C42.5657 12.0668 41.4702 13.2728 41.0575 14.7596L39.3243 21.063H28.6698C27.4167 21.063 26.4038 22.0946 26.4038 23.3538V37.379C26.4038 38.6458 27.4242 39.6698 28.6698 39.6698H53.8954C55.1485 39.6698 56.1614 38.6382 56.1614 37.379V29.2627L54.1506 30.9163V37.3866C54.1506 37.5307 54.038 37.6445 53.8954 37.6445H28.6773C28.5347 37.6445 28.4222 37.5307 28.4222 37.3866V23.3613C28.4222 23.2172 28.5347 23.1034 28.6773 23.1034H38H47.3227L46.7674 23.7178C46.7599 23.7254 45.8821 24.5371 44.644 25.7886C43.2559 27.1919 41.8228 30.3019 43.5561 33.1237C43.9312 33.7381 44.4264 34.1629 45.0192 34.3752C45.5594 34.5725 45.9721 34.5042 46.3397 34.398C47.3677 34.1098 48.2531 33.2299 48.2681 33.2147L52.4248 29.7558L57.0243 25.8873L57.3844 25.5838C58.1197 24.9694 58.6975 24.2185 59.1177 23.3462C60.1081 21.283 62.6066 16.2615 64.4599 14.1527C64.8201 13.7355 65.0152 13.2046 65.0152 12.6508V2.95679C65.0001 1.69762 63.9797 0.666016 62.7267 0.666016ZM57.2944 22.4587C57.0093 23.0655 56.5966 23.5889 56.0864 24.0137L46.0621 32.4713C45.9196 32.5775 45.717 32.5548 45.6044 32.4182C44.5765 31.1666 44.554 29.331 45.5444 28.0794L51.4869 21.4953C51.727 21.2299 51.8096 20.8506 51.7045 20.5017C51.5995 20.1603 51.3144 19.8948 50.9617 19.819C50.8942 19.8038 50.8191 19.7962 50.7441 19.7962C50.4665 19.7962 50.1889 19.9176 50.0013 20.13L49.1534 21.0706H41.4177L43.0008 15.3057C43.2409 14.4486 43.8787 13.7431 44.7041 13.4245L51.7345 10.7621C52.7625 10.3677 53.6328 9.6243 54.1881 8.66854L54.2481 8.56994L61.061 15.4574C59.6879 17.7103 58.4199 20.0693 57.2944 22.4587ZM62.9893 12.666C62.9893 12.7191 62.9743 12.7722 62.9368 12.8177C62.6817 13.1136 62.4341 13.4245 62.2015 13.7355L55.2985 6.74945L57.3844 3.13883C57.542 2.86576 57.8346 2.6913 58.1497 2.6913H62.7417C62.8843 2.6913 62.9968 2.80508 62.9968 2.9492V12.666H62.9893Z" fill="#414042"/>
</g>
<defs>
<clipPath id="clip0">
<rect width="65" height="48" fill="white" transform="translate(0 0.666016)"/>
</clipPath>
</defs>
</svg>
