<svg width="35" height="35" viewBox="0 0 35 35" fill="none" xmlns="http://www.w3.org/2000/svg">
<circle cx="17.5" cy="17.5" r="17.5" fill="#02AA31"/>
<g clip-path="url(#clip0)">
<path fill-rule="evenodd" clip-rule="evenodd" d="M17.7486 7.85727C15.4113 7.70808 13.4221 9.59782 13.4221 11.9351V13.7254C13.4221 13.8746 13.5216 13.9741 13.6708 13.9741H21.3292C21.4784 13.9741 21.5778 13.8746 21.5778 13.7254V12.0346C21.5778 9.8962 19.9368 8.00646 17.7486 7.85727ZM21.3292 15.2173H13.7205C13.5713 15.2173 13.4718 15.3168 13.4718 15.466V16.6098C13.4718 18.7481 15.1129 20.6379 17.2513 20.7871C19.6384 20.9363 21.5778 19.0465 21.5778 16.7589V15.5157C21.5778 15.3168 21.4287 15.2173 21.3292 15.2173Z" fill="white" stroke="white" stroke-miterlimit="10" stroke-linecap="round" stroke-linejoin="round"/>
<path d="M25.1087 17.2563C25.1087 16.7093 24.6611 16.2617 24.1141 16.2617C23.567 16.2617 23.1195 16.7093 23.1195 17.2563C23.1195 20.3396 20.633 22.8261 17.5497 22.8261C14.4664 22.8261 11.9799 20.3396 11.9799 17.2563C11.9799 16.7093 11.5324 16.2617 10.9853 16.2617C10.4383 16.2617 9.99072 16.7093 9.99072 17.2563C9.99072 21.1353 12.8751 24.318 16.6545 24.8153C16.5054 25.3126 16.1572 25.7104 15.7097 25.9093H15.1129C14.5659 25.9093 14.1183 26.3569 14.1183 26.9039C14.1183 27.451 14.5659 27.8986 15.1129 27.8986H20.1854C20.7324 27.8986 21.18 27.451 21.18 26.9039C21.18 26.3569 20.7324 25.9093 20.1854 25.9093H19.5886C19.1411 25.7104 18.7432 25.3126 18.6438 24.8153C22.2243 24.318 25.1087 21.1353 25.1087 17.2563Z" fill="white"/>
</g>
<defs>
<clipPath id="clip0">
<rect width="15.2174" height="20.2899" fill="white" transform="translate(9.89136 7.60864)"/>
</clipPath>
</defs>
</svg>
