<svg width="49" height="48" viewBox="0 0 49 48" fill="none" xmlns="http://www.w3.org/2000/svg">
<g clip-path="url(#clip0)">
<path d="M5.16639 23.4841L10.3582 23.4841L10.3582 21.1419L5.16639 21.1419L5.16639 23.4841Z" fill="#414042"/>
<path d="M32.6076 34.6252L37.7993 34.6252L37.7993 32.283L32.6076 32.283L32.6076 34.6252Z" fill="#414042"/>
<path d="M1.57798 39.8972L41.4219 39.8972C42.0113 39.8972 42.488 39.3527 42.488 38.6699L42.488 17.9702C42.488 17.2961 42.0113 16.7429 41.4219 16.7429L27.9615 16.7429C27.3721 16.7429 26.8954 17.2874 26.8954 17.9702C26.8954 18.6444 27.3721 19.1975 27.9615 19.1975L40.3472 19.1975L40.3472 37.4426L2.64407 37.4426L2.64407 19.1975L15.0384 19.1975C15.6278 19.1975 16.1045 18.653 16.1045 17.9702C16.1045 17.2961 15.6278 16.7429 15.0384 16.7429L1.57798 16.7429C0.988596 16.7429 0.511888 17.2874 0.511888 17.9702L0.51189 38.6699C0.51189 39.3441 0.988598 39.8972 1.57798 39.8972Z" fill="#414042"/>
<path d="M7.60189 47.166L47.4459 47.166C48.0353 47.166 48.512 46.6215 48.512 45.9387L48.512 25.239C48.512 24.5649 48.0353 24.0117 47.4459 24.0117L44.811 24.0117C44.2216 24.0117 43.7449 24.5562 43.7449 25.239C43.7449 25.9132 44.2216 26.4663 44.811 26.4663L46.3711 26.4663L46.3711 44.7201L8.66798 44.7201L8.66798 42.5594C8.66798 41.8852 8.19127 41.3321 7.60189 41.3321C7.0125 41.3321 6.5358 41.8766 6.5358 42.5594L6.5358 45.9387C6.5358 46.6215 7.0125 47.166 7.60189 47.166Z" fill="#414042"/>
<path d="M21.0709 36.6731C25.6906 36.6731 29.4436 32.9307 29.4436 28.3241C29.4436 24.4866 26.8347 21.2628 23.2984 20.2862L23.2984 22.7408C25.5259 23.631 27.1034 25.7917 27.1034 28.3241C27.1034 31.6429 24.3992 34.3395 21.0709 34.3395C17.7426 34.3395 15.0384 31.6429 15.0384 28.3241C15.0384 25.7917 16.6159 23.6223 18.8434 22.7408L18.8434 20.2862C15.3071 21.2628 12.6982 24.4953 12.6982 28.3241C12.6895 32.9307 16.4512 36.6731 21.0709 36.6731Z" fill="#414042"/>
<path d="M12.3951 10.0366C12.6205 10.2613 12.9152 10.391 13.2358 10.3996L13.2445 10.3996C13.5739 10.3996 13.8772 10.27 14.1113 10.0453L19.8404 4.34097L19.8404 23.9085C17.5175 24.548 16.0614 26.9075 16.5815 29.293C17.1188 31.7648 19.5804 33.3378 22.0419 32.802C23.238 32.5427 24.2694 31.834 24.9368 30.8055C25.6042 29.777 25.8209 28.5497 25.5609 27.357C25.1968 25.6889 23.9314 24.3665 22.3019 23.9085L22.3019 4.34097L28.0397 10.0539C28.5338 10.512 29.3138 10.4861 29.7732 9.99341C30.2066 9.5267 30.2066 8.79205 29.7645 8.31669L21.9466 0.52081C21.8339 0.408452 21.6952 0.313382 21.5392 0.252881C21.3919 0.19238 21.2358 0.166451 21.0885 0.166451C20.9411 0.166451 20.7851 0.19238 20.6378 0.252881C20.4904 0.313382 20.3518 0.399812 20.2391 0.512166L12.4298 8.30805C12.1958 8.53277 12.0657 8.84391 12.0657 9.17234C12.0657 9.50077 12.1698 9.80327 12.3951 10.0366ZM18.9303 28.325C18.9303 27.1495 19.8924 26.1902 21.0712 26.1902C22.2499 26.1902 23.212 27.1495 23.212 28.325C23.212 29.5004 22.2499 30.4598 21.0712 30.4598C19.8924 30.4598 18.9303 29.5004 18.9303 28.325Z" fill="#19AA4B"/>
</g>
<defs>
<clipPath id="clip0">
<rect width="48" height="47" fill="white" transform="translate(48.512 47.166) rotate(180)"/>
</clipPath>
</defs>
</svg>
