<svg width="24" height="25" viewBox="0 0 24 25" fill="none" xmlns="http://www.w3.org/2000/svg">
<g clip-path="url(#clip0)">
<path d="M22.2341 4.83197C22.2341 6.62695 20.7792 8.08209 18.9842 8.08209C17.1892 8.08209 15.7343 6.62695 15.7343 4.83197C15.7343 3.03717 17.1892 1.58203 18.9842 1.58203C20.7792 1.58203 22.2341 3.03717 22.2341 4.83197Z" fill="#494A4E"/>
<path d="M18.9842 8.83209C16.7781 8.83209 14.9843 7.03802 14.9843 4.83197C14.9843 2.6261 16.7781 0.832031 18.9842 0.832031C21.1902 0.832031 22.9841 2.6261 22.9841 4.83197C22.9841 7.03802 21.1902 8.83209 18.9842 8.83209ZM18.9842 2.33203C17.6052 2.33203 16.4843 3.4541 16.4843 4.83197C16.4843 6.21002 17.6052 7.33209 18.9842 7.33209C20.3632 7.33209 21.4841 6.21002 21.4841 4.83197C21.4841 3.4541 20.3632 2.33203 18.9842 2.33203Z" fill="#494A4E"/>
<path d="M22.2341 20.8322C22.2341 22.627 20.7792 24.0821 18.9842 24.0821C17.1892 24.0821 15.7343 22.627 15.7343 20.8322C15.7343 19.0372 17.1892 17.582 18.9842 17.582C20.7792 17.582 22.2341 19.0372 22.2341 20.8322Z" fill="#494A4E"/>
<path d="M18.9842 24.8321C16.7781 24.8321 14.9843 23.038 14.9843 20.8322C14.9843 18.6261 16.7781 16.832 18.9842 16.832C21.1902 16.832 22.9841 18.6261 22.9841 20.8322C22.9841 23.038 21.1902 24.8321 18.9842 24.8321ZM18.9842 18.332C17.6052 18.332 16.4843 19.4541 16.4843 20.8322C16.4843 22.21 17.6052 23.3321 18.9842 23.3321C20.3632 23.3321 21.4841 22.21 21.4841 20.8322C21.4841 19.4541 20.3632 18.332 18.9842 18.332Z" fill="#494A4E"/>
<path d="M8.23444 12.832C8.23444 14.627 6.7793 16.0819 4.98431 16.0819C3.18951 16.0819 1.73438 14.627 1.73438 12.832C1.73438 11.037 3.18951 9.58203 4.98431 9.58203C6.7793 9.58203 8.23444 11.037 8.23444 12.832Z" fill="#494A4E"/>
<path d="M4.98431 16.8319C2.77844 16.8319 0.984375 15.038 0.984375 12.832C0.984375 10.6259 2.77844 8.83203 4.98431 8.83203C7.19037 8.83203 8.98444 10.6259 8.98444 12.832C8.98444 15.038 7.19037 16.8319 4.98431 16.8319ZM4.98431 10.332C3.60535 10.332 2.48438 11.4539 2.48438 12.832C2.48438 14.21 3.60535 15.3319 4.98431 15.3319C6.36346 15.3319 7.48444 14.21 7.48444 12.832C7.48444 11.4539 6.36346 10.332 4.98431 10.332Z" fill="#494A4E"/>
<path d="M7.34536 12.3523C6.99727 12.3523 6.65926 12.1712 6.47524 11.8473C6.20223 11.3683 6.37032 10.7573 6.84933 10.4832L16.1282 5.19325C16.6072 4.91822 17.2182 5.08631 17.4923 5.56715C17.7653 6.04615 17.5972 6.65718 17.1182 6.93129L7.83919 12.2212C7.68319 12.3102 7.51327 12.3523 7.34536 12.3523Z" fill="#494A4E"/>
<path d="M16.6232 20.6021C16.4551 20.6021 16.2852 20.56 16.1292 20.471L6.85016 15.1811C6.37116 14.9081 6.20325 14.2971 6.47626 13.817C6.74817 13.337 7.36011 13.168 7.84021 13.4431L17.1193 18.733C17.5983 19.006 17.7662 19.617 17.4932 20.0971C17.3082 20.421 16.9702 20.6021 16.6232 20.6021Z" fill="#494A4E"/>
</g>
<defs>
<clipPath id="clip0">
<rect width="24" height="24" fill="white" transform="translate(0 0.832031)"/>
</clipPath>
</defs>
</svg>
