<svg width="24" height="17" viewBox="0 0 24 17" fill="none" xmlns="http://www.w3.org/2000/svg">
<path d="M22.8059 1.88118C22.1598 0.73195 21.4587 0.520564 20.0311 0.440177C18.605 0.343416 15.0189 0.303223 11.9121 0.303223C8.79933 0.303223 5.21172 0.343416 3.78709 0.438689C2.36247 0.520564 1.65983 0.730461 1.00781 1.88118C0.342386 3.02892 0 5.00583 0 8.48626C0 8.48923 0 8.49072 0 8.49072C0 8.4937 0 8.49519 0 8.49519V8.49817C0 11.9637 0.342386 13.9555 1.00781 15.0913C1.65983 16.2406 2.36098 16.449 3.7856 16.5457C5.21172 16.6291 8.79933 16.6782 11.9121 16.6782C15.0189 16.6782 18.605 16.6291 20.0326 16.5472C21.4602 16.4505 22.1613 16.2421 22.8074 15.0928C23.4788 13.957 23.8182 11.9652 23.8182 8.49965C23.8182 8.49965 23.8182 8.49519 23.8182 8.49221V8.48775C23.8182 5.00583 23.4788 3.02892 22.8059 1.88118Z" fill="#F44336"/>
<path d="M8.93188 12.9567V4.0249L16.3751 8.49081L8.93188 12.9567Z" fill="#FAFAFA"/>
</svg>
