<svg width="60" height="60" viewBox="0 0 60 60" fill="none" xmlns="http://www.w3.org/2000/svg">
<g clip-path="url(#clip0)">
<path d="M16.1528 51.3511V54.7957C16.1528 56.4927 17.5371 57.8604 19.2403 57.8604H47.7292C49.4388 57.8604 50.8167 56.4864 50.8167 54.7957V51.3511H16.1528Z" fill="black"/>
<path d="M50.8231 8.64755V5.20291C50.8231 3.50591 49.4388 2.13818 47.7356 2.13818H19.2467C17.5371 2.13818 16.1528 3.51224 16.1528 5.20291V8.64755H50.8231Z" fill="black"/>
<path d="M50.8231 8.64771H16.1528V51.3512H50.8231V8.64771Z" fill="#05944F"/>
<path d="M33.4911 56.3915C34.386 56.3915 35.1114 55.6714 35.1114 54.7832C35.1114 53.8949 34.386 53.1748 33.4911 53.1748C32.5963 53.1748 31.8708 53.8949 31.8708 54.7832C31.8708 55.6714 32.5963 56.3915 33.4911 56.3915Z" fill="white"/>
<path d="M53.483 22.9391C52.0158 24.3955 49.6301 24.3955 48.1629 22.9391C46.6957 21.4828 46.6957 19.1146 48.1629 17.6582C49.6301 16.2018 52.0158 16.2018 53.483 17.6582C54.9502 19.1146 54.9502 21.4828 53.483 22.9391Z" fill="#66D19E"/>
<path d="M53.483 30.4111C52.0159 31.8674 49.6301 31.8674 48.1629 30.4111C46.6957 28.9547 46.6957 26.5865 48.1629 25.1301C49.6301 23.6737 52.0159 23.6737 53.483 25.1301C54.9502 26.5865 54.9502 28.9547 53.483 30.4111Z" fill="#66D19E"/>
<path d="M53.483 37.8828C52.0159 39.3391 49.6301 39.3391 48.1629 37.8828C46.6957 36.4264 46.6957 34.0582 48.1629 32.6018C49.6301 31.1454 52.0159 31.1454 53.483 32.6018C54.9502 34.0582 54.9502 36.4264 53.483 37.8828Z" fill="#66D19E"/>
<path d="M53.483 45.3547C52.0159 46.811 49.6301 46.811 48.1629 45.3547C46.6957 43.8983 46.6957 41.5301 48.1629 40.0737C49.6301 38.6174 52.0159 38.6174 53.483 40.0737C54.9502 41.5301 54.9502 43.8983 53.483 45.3547Z" fill="#66D19E"/>
<path d="M23.0995 47.9125V57.8602H5.41675V34.3936C5.41675 31.6771 6.2843 29.0366 7.89821 26.8457L15.7317 16.2079C16.2165 15.5493 17.1606 15.4164 17.8113 15.9229C20.2289 17.7972 20.9179 21.1342 19.4507 23.8063L17.033 28.1945V38.2878L17.2882 38.4208C19.0743 39.3389 20.5288 40.7193 21.5367 42.3593C22.5445 43.9993 23.0995 45.9116 23.0995 47.9125Z" fill="#66D19E"/>
<path d="M31.0479 20.501C31.0479 19.1396 32.1514 18.1138 33.5229 18.1138C34.8944 18.1138 35.9278 19.1396 35.9278 20.501C35.9278 21.8624 34.8944 22.9198 33.5229 22.9198C32.1514 22.9198 31.0479 21.856 31.0479 20.501ZM35.6918 41.8844H31.3158V26.4151H35.6918V41.8844Z" fill="white"/>
</g>
<defs>
<clipPath id="clip0">
<rect width="59" height="59" fill="white" transform="translate(0.5 0.499023)"/>
</clipPath>
</defs>
</svg>
