<svg width="208" height="201" viewBox="0 0 208 201" fill="none" xmlns="http://www.w3.org/2000/svg">
<path d="M72.4247 199.344C66.7035 200.187 60.9136 200.467 55.1378 200.18C41.211 199.476 27.5145 195.423 15.8095 187.805C10.6198 184.426 5.66921 180.276 2.98287 174.701C-0.663104 167.129 0.611977 157.544 5.81849 150.949C7.71764 148.57 10.0537 146.577 12.7009 145.075C13.0932 144.853 13.494 144.64 13.8992 144.435C18.3102 142.216 23.2647 141.309 28.1756 141.82C36.5246 142.733 44.2301 147.835 48.6818 154.963C52.6474 161.319 54.0291 168.818 54.8436 176.334C54.9971 177.751 55.1293 179.171 55.2571 180.583C54.5476 184.674 53.4319 188.683 51.9268 192.553C51.8502 192.741 51.7875 192.935 51.7392 193.133C52.592 194.984 53.4036 196.852 54.174 198.738C54.8979 199.131 55.7086 199.336 56.5322 199.335H72.3906L72.4247 199.344Z" fill="#F2F2F2"/>
<path d="M53.8455 199.706C53.7404 199.753 53.6269 199.779 53.5119 199.781C53.3968 199.784 53.2823 199.764 53.1751 199.722C53.068 199.68 52.9703 199.617 52.8877 199.536C52.8052 199.456 52.7394 199.36 52.6943 199.254C52.626 199.092 52.5621 198.93 52.4938 198.768C51.8798 197.275 51.2359 195.796 50.5622 194.332C41.9367 175.432 29.071 158.777 12.965 145.66C12.8727 145.595 12.7995 145.506 12.753 145.404C12.7065 145.301 12.6885 145.187 12.7008 145.075C12.7241 144.947 12.7763 144.825 12.8533 144.72C12.9302 144.614 13.0301 144.527 13.1453 144.466C13.2605 144.404 13.3882 144.369 13.5187 144.364C13.6492 144.359 13.7792 144.383 13.899 144.435C13.9632 144.465 14.0234 144.502 14.0781 144.546C20.9689 150.161 27.2904 156.44 32.9511 163.294C38.613 170.142 43.5984 177.522 47.8374 185.331C48.9929 187.464 50.0902 189.626 51.1292 191.819C51.334 192.254 51.5387 192.694 51.739 193.133C52.5918 194.984 53.4035 196.853 54.1739 198.738C54.1868 198.768 54.1995 198.802 54.2124 198.832C54.2516 198.913 54.2732 199.001 54.2757 199.09C54.2781 199.18 54.2615 199.269 54.2267 199.352C54.192 199.435 54.14 199.509 54.0743 199.57C54.0086 199.631 53.9306 199.678 53.8455 199.706Z" fill="white"/>
<path d="M138.434 87.5649C141.495 87.5649 143.977 85.0821 143.977 82.0194C143.977 78.9568 141.495 76.474 138.434 76.474C135.372 76.474 132.89 78.9568 132.89 82.0194C132.89 85.0821 135.372 87.5649 138.434 87.5649Z" fill="#3CBA5A"/>
<path d="M137.884 84.1347C137.759 84.135 137.638 84.0946 137.538 84.0198L137.532 84.0151L136.229 83.0173C136.169 82.9712 136.118 82.9135 136.08 82.8477C136.041 82.7818 136.016 82.7091 136.006 82.6336C135.996 82.5581 136.001 82.4814 136.021 82.4078C136.04 82.3342 136.074 82.2652 136.121 82.2047C136.167 82.1443 136.225 82.0936 136.291 82.0555C136.356 82.0174 136.429 81.9927 136.505 81.9828C136.58 81.9729 136.657 81.978 136.73 81.9978C136.804 82.0176 136.873 82.0517 136.933 82.0982L137.777 82.7454L139.771 80.1439C139.817 80.0836 139.875 80.0329 139.941 79.9949C140.007 79.9569 140.079 79.9322 140.155 79.9222C140.23 79.9123 140.307 79.9173 140.38 79.9369C140.453 79.9566 140.522 79.9905 140.583 80.0368L140.57 80.0536L140.583 80.037C140.705 80.1306 140.784 80.2686 140.804 80.4207C140.824 80.5729 140.783 80.7269 140.69 80.8488L138.344 83.9088C138.29 83.9793 138.22 84.0363 138.141 84.0755C138.061 84.1147 137.973 84.135 137.884 84.1347Z" fill="white"/>
<path d="M138.434 103.775C141.495 103.775 143.977 101.292 143.977 98.2291C143.977 95.1665 141.495 92.6837 138.434 92.6837C135.372 92.6837 132.89 95.1665 132.89 98.2291C132.89 101.292 135.372 103.775 138.434 103.775Z" fill="#3CBA5A"/>
<path d="M137.884 100.345C137.759 100.345 137.638 100.304 137.538 100.23L137.532 100.225L136.229 99.2272C136.169 99.181 136.118 99.1234 136.08 99.0575C136.041 98.9917 136.016 98.9189 136.006 98.8434C135.996 98.7679 136.001 98.6912 136.021 98.6176C136.04 98.544 136.074 98.475 136.121 98.4146C136.167 98.3541 136.225 98.3034 136.291 98.2653C136.356 98.2273 136.429 98.2026 136.505 98.1927C136.58 98.1828 136.657 98.1878 136.73 98.2076C136.804 98.2274 136.873 98.2616 136.933 98.308L137.777 98.9553L139.771 96.3538C139.817 96.2934 139.875 96.2428 139.941 96.2047C140.007 96.1667 140.079 96.142 140.155 96.1321C140.23 96.1221 140.307 96.1271 140.38 96.1468C140.453 96.1664 140.522 96.2003 140.583 96.2466L140.57 96.2634L140.583 96.2469C140.705 96.3404 140.784 96.4784 140.804 96.6306C140.824 96.7828 140.783 96.9367 140.69 97.0586L138.344 100.119C138.29 100.189 138.22 100.246 138.141 100.285C138.061 100.325 137.973 100.345 137.884 100.345Z" fill="white"/>
<path d="M141.419 122.544C144.48 122.544 146.962 120.061 146.962 116.998C146.962 113.936 144.48 111.453 141.419 111.453C138.357 111.453 135.875 113.936 135.875 116.998C135.875 120.061 138.357 122.544 141.419 122.544Z" fill="#3CBA5A"/>
<path d="M140.869 119.114C140.744 119.114 140.623 119.074 140.523 118.999L140.517 118.994L139.214 117.996C139.153 117.95 139.103 117.893 139.064 117.827C139.026 117.761 139.001 117.688 138.991 117.613C138.981 117.537 138.986 117.46 139.006 117.387C139.025 117.313 139.059 117.244 139.105 117.184C139.152 117.123 139.209 117.073 139.275 117.034C139.341 116.996 139.414 116.972 139.49 116.962C139.565 116.952 139.642 116.957 139.715 116.977C139.789 116.997 139.858 117.031 139.918 117.077L140.762 117.724L142.756 115.123C142.802 115.063 142.86 115.012 142.926 114.974C142.991 114.936 143.064 114.911 143.139 114.901C143.215 114.891 143.291 114.896 143.365 114.916C143.438 114.936 143.507 114.97 143.567 115.016L143.555 115.033L143.568 115.016C143.689 115.11 143.769 115.248 143.789 115.4C143.809 115.552 143.768 115.706 143.675 115.828L141.329 118.888C141.275 118.958 141.205 119.015 141.125 119.055C141.046 119.094 140.958 119.114 140.869 119.114Z" fill="white"/>
<path d="M194.872 163.298C194.815 163.298 194.778 163.297 194.766 163.296L187.884 163.297V162.282H194.791C194.951 162.287 198.213 162.379 201.22 158.73C205.699 153.292 209.378 139.829 201.464 106.576C190.822 61.8626 199.698 22.3607 204.008 7.45271C204.22 6.71515 204.258 5.93829 204.119 5.18352C203.979 4.42875 203.666 3.71675 203.205 3.10376C202.743 2.49078 202.145 1.99361 201.458 1.65154C200.771 1.30948 200.014 1.13189 199.247 1.1328H96.4664C95.685 1.13385 94.9148 1.31919 94.2184 1.67379C93.522 2.02839 92.919 2.54226 92.4583 3.17368C90.6325 5.68618 88.1269 10.5129 86.5589 19.2405L85.5603 19.0611C87.1622 10.1439 89.7493 5.17515 91.6376 2.5769C92.1925 1.81606 92.919 1.19687 93.758 0.769578C94.597 0.342285 95.5249 0.11894 96.4664 0.117679H199.247C200.172 0.116788 201.084 0.330996 201.911 0.743379C202.739 1.15576 203.459 1.75502 204.016 2.49381C204.572 3.2326 204.949 4.09068 205.117 5.00025C205.285 5.90982 205.239 6.84597 204.983 7.73474C200.695 22.5654 191.865 61.8623 202.451 106.341C210.477 140.062 206.619 153.816 201.969 159.417C198.902 163.111 195.522 163.298 194.872 163.298Z" fill="#E6E6E6"/>
<path d="M176.353 181.824C176.296 181.824 176.26 181.822 176.247 181.822L169.365 181.822V180.807H176.272C176.433 180.812 179.694 180.905 182.701 177.256C187.181 171.818 190.859 158.355 182.945 125.102C172.303 80.3883 181.179 40.8864 185.489 25.9785C185.701 25.2409 185.739 24.4641 185.6 23.7093C185.46 22.9545 185.148 22.2425 184.686 21.6295C184.224 21.0165 183.626 20.5194 182.939 20.1773C182.252 19.8352 181.495 19.6576 180.728 19.6586H77.9474C77.166 19.6596 76.3959 19.8449 75.6995 20.1995C75.0031 20.5541 74.4001 21.068 73.9394 21.6994C72.1135 24.2119 69.6079 29.0387 68.04 37.7663L67.0413 37.5868C68.6432 28.6697 71.2303 23.7009 73.1186 21.1027C73.6735 20.3418 74.4 19.7226 75.239 19.2953C76.0781 18.868 77.006 18.6447 77.9474 18.6434H180.728C181.653 18.6425 182.565 18.8568 183.393 19.2691C184.22 19.6815 184.941 20.2808 185.497 21.0196C186.053 21.7584 186.43 22.6164 186.598 23.526C186.766 24.4356 186.72 25.3717 186.464 26.2605C182.176 41.0911 173.346 80.3881 183.932 124.867C191.958 158.588 188.1 172.342 183.45 177.943C180.383 181.637 177.004 181.824 176.353 181.824Z" fill="#CCCCCC"/>
<path d="M165.413 143.395C154.825 98.9159 163.656 59.6159 167.946 44.7883C168.201 43.8994 168.247 42.9634 168.079 42.054C167.911 41.1447 167.534 40.2868 166.977 39.548C166.421 38.8093 165.701 38.2099 164.874 37.7972C164.047 37.3844 163.135 37.1696 162.21 37.1697H59.4273C58.4862 37.1706 57.5587 37.3936 56.7199 37.8205C55.8812 38.2474 55.1549 38.8663 54.6002 39.6267C50.4511 45.3343 41.8418 64.2612 51.4576 116.631C56.6 144.649 56.5234 163.75 54.8434 176.334C53.9008 183.42 52.4468 188.436 51.1291 191.819L50.9885 192.177C50.711 192.862 50.5663 193.593 50.5621 194.331C50.5524 195.165 50.7195 195.992 51.0525 196.757C51.3854 197.521 51.8766 198.207 52.4937 198.768C52.896 199.145 53.3514 199.461 53.8454 199.706C54.2555 199.916 54.6894 200.075 55.1376 200.18C55.594 200.291 56.0621 200.347 56.5319 200.346H157.729C157.742 200.346 157.776 200.35 157.835 200.35C158.484 200.35 161.865 200.163 164.931 196.469C169.579 190.868 173.438 177.115 165.413 143.395ZM164.18 195.782C161.174 199.433 157.912 199.339 157.754 199.335H56.5319C55.7216 199.335 54.9235 199.136 54.2077 198.756C53.4918 198.376 52.8799 197.826 52.4254 197.155C52.0256 196.575 51.7571 195.915 51.6385 195.22C51.52 194.525 51.5543 193.813 51.7389 193.133C51.7873 192.935 51.85 192.741 51.9265 192.553C53.4317 188.683 54.5473 184.674 55.2569 180.583C57.6619 167.466 58.1096 147.225 52.4554 116.448C42.9123 64.466 51.351 45.8248 55.4188 40.2239C55.8804 39.5934 56.4836 39.0804 57.18 38.7262C57.8763 38.3719 58.6461 38.1865 59.4273 38.1849H162.21C162.977 38.1844 163.734 38.3622 164.42 38.7042C165.106 39.0463 165.704 39.5432 166.165 40.1559C166.627 40.7685 166.94 41.4801 167.079 42.2344C167.219 42.9887 167.181 43.7652 166.969 44.5024C162.658 59.4111 153.784 98.9159 164.428 143.629C172.342 176.88 168.662 190.343 164.18 195.782Z" fill="#3F3D56"/>
<path d="M116.584 85.6027H63.629C62.5525 85.6027 61.5201 85.1749 60.7589 84.4134C59.9977 83.6519 59.5701 82.6192 59.5701 81.5423C59.5701 80.4654 59.9977 79.4326 60.7589 78.6711C61.5201 77.9096 62.5525 77.4818 63.629 77.4818H116.584C117.66 77.4818 118.693 77.9096 119.454 78.6711C120.215 79.4326 120.643 80.4654 120.643 81.5423C120.643 82.6192 120.215 83.6519 119.454 84.4134C118.693 85.1749 117.66 85.6027 116.584 85.6027Z" fill="#CCCCCC"/>
<path d="M116.584 103.092H63.629C62.5525 103.092 61.5201 102.664 60.7589 101.903C59.9977 101.141 59.5701 100.109 59.5701 99.0318C59.5701 97.9549 59.9977 96.9221 60.7589 96.1606C61.5201 95.3991 62.5525 94.9713 63.629 94.9713H116.584C117.66 94.9713 118.693 95.3991 119.454 96.1606C120.215 96.9221 120.643 97.9549 120.643 99.0318C120.643 100.109 120.215 101.141 119.454 101.903C118.693 102.664 117.66 103.092 116.584 103.092Z" fill="#CCCCCC"/>
<path d="M120.848 121.008H67.8932C66.8167 121.008 65.7843 120.58 65.0231 119.819C64.2619 119.057 63.8342 118.025 63.8342 116.948C63.8342 115.871 64.2619 114.838 65.0231 114.076C65.7843 113.315 66.8167 112.887 67.8932 112.887H120.848C121.925 112.887 122.957 113.315 123.718 114.076C124.479 114.838 124.907 115.871 124.907 116.948C124.907 118.025 124.479 119.057 123.718 119.819C122.957 120.58 121.925 121.008 120.848 121.008Z" fill="#CCCCCC"/>
<path d="M123.833 139.777H70.878C69.8015 139.777 68.7691 139.349 68.0079 138.588C67.2467 137.826 66.8191 136.794 66.8191 135.717C66.8191 134.64 67.2467 133.607 68.0079 132.846C68.7691 132.084 69.8015 131.656 70.878 131.656H123.833C124.909 131.656 125.942 132.084 126.703 132.846C127.464 133.607 127.892 134.64 127.892 135.717C127.892 136.794 127.464 137.826 126.703 138.588C125.942 139.349 124.909 139.777 123.833 139.777Z" fill="#CCCCCC"/>
<path d="M123.855 54.0749H85.8026C85.2692 54.0754 84.741 53.9708 84.2481 53.767C83.7551 53.5632 83.3072 53.2642 82.9298 52.8871C82.5525 52.51 82.2531 52.0622 82.0489 51.5693C81.8446 51.0764 81.7395 50.548 81.7395 50.0144C81.7395 49.4809 81.8446 48.9525 82.0489 48.4596C82.2531 47.9667 82.5525 47.5189 82.9298 47.1418C83.3072 46.7647 83.7551 46.4657 84.2481 46.2619C84.741 46.0581 85.2692 45.9534 85.8026 45.954H123.855C124.932 45.954 125.964 46.3818 126.726 47.1433C127.487 47.9047 127.914 48.9375 127.914 50.0144C127.914 51.0913 127.487 52.1241 126.726 52.8856C125.964 53.6471 124.932 54.0749 123.855 54.0749Z" fill="#3CBA5A"/>
<path d="M144.83 141.262C147.892 141.262 150.373 138.779 150.373 135.717C150.373 132.654 147.892 130.171 144.83 130.171C141.768 130.171 139.287 132.654 139.287 135.717C139.287 138.779 141.768 141.262 144.83 141.262Z" fill="#CCCCCC"/>
<path d="M126.391 158.12H73.4364C72.3599 158.12 71.3275 157.692 70.5663 156.931C69.8051 156.169 69.3774 155.136 69.3774 154.059C69.3774 152.983 69.8051 151.95 70.5663 151.188C71.3275 150.427 72.3599 149.999 73.4364 149.999H126.391C127.468 149.999 128.5 150.427 129.261 151.188C130.023 151.95 130.45 152.983 130.45 154.059C130.45 155.136 130.023 156.169 129.261 156.931C128.5 157.692 127.468 158.12 126.391 158.12Z" fill="#CCCCCC"/>
<path d="M147.388 159.605C150.45 159.605 152.932 157.122 152.932 154.059C152.932 150.997 150.45 148.514 147.388 148.514C144.327 148.514 141.845 150.997 141.845 154.059C141.845 157.122 144.327 159.605 147.388 159.605Z" fill="#CCCCCC"/>
</svg>
