<svg width="50" height="51" viewBox="0 0 50 51" fill="none" xmlns="http://www.w3.org/2000/svg">
<g clip-path="url(#clip0)">
<path d="M7.2627 9.68726H14.5135V11.5144H7.2627V9.68726Z" fill="#19AA4B"/>
<path d="M7.2627 13.3354H14.5135V15.1626H7.2627V13.3354Z" fill="#19AA4B"/>
<path d="M7.2627 18.8108H23.5799V20.6379H7.2627V18.8108Z" fill="#19AA4B"/>
<path d="M25.3958 18.8108H29.0211V20.6379H25.3958V18.8108Z" fill="#19AA4B"/>
<path d="M7.2627 22.4587H23.5799V24.2859H7.2627V22.4587Z" fill="#19AA4B"/>
<path d="M25.3958 22.4587H29.0211V24.2859H25.3958V22.4587Z" fill="#19AA4B"/>
<path d="M7.2627 26.1069H23.5799V27.934H7.2627V26.1069Z" fill="#19AA4B"/>
<path d="M25.3958 26.1069H29.0211V27.934H25.3958V26.1069Z" fill="#19AA4B"/>
<path d="M17.6201 40.1403H1.82767V4.21097L2.91348 5.66781C3.07032 5.88027 3.31161 6.01381 3.57702 6.03202C3.84244 6.05023 4.0958 5.95311 4.2828 5.76493L7.26876 2.7602L10.2547 5.76493C10.6106 6.12307 11.1837 6.12307 11.5396 5.76493L14.5316 2.75413L17.5055 5.67995C17.8554 6.02595 18.4224 6.02595 18.7723 5.67995L21.7643 2.74806L24.7563 5.75886C25.1122 6.117 25.6852 6.117 26.0351 5.75886L29.0211 2.7602L32.007 5.76493C32.194 5.95311 32.4474 6.05023 32.7128 6.03202C32.9782 6.01381 33.2135 5.88027 33.3764 5.66781L34.4622 4.21097V29.1472H36.2779V1.47332C36.2779 0.969498 35.8737 0.562797 35.373 0.562797C35.0895 0.562797 34.8181 0.696341 34.6492 0.927007L32.556 3.7375L29.6665 0.829884C29.3106 0.471744 28.7376 0.471744 28.3877 0.829884L25.4017 3.83462L22.4158 0.829884C22.0659 0.477814 21.4989 0.477814 21.149 0.823814L18.1449 3.75571L15.1529 0.823814C14.797 0.471744 14.23 0.477814 13.8801 0.829884L10.8941 3.83462L7.90818 0.829884C7.55228 0.471744 6.97922 0.471744 6.62935 0.829884L3.73386 3.7375L1.64067 0.927007C1.33906 0.526376 0.772027 0.441393 0.373898 0.744902C0.144672 0.914867 0.0119629 1.18802 0.0119629 1.47332V41.0508C0.0119629 41.5547 0.416124 41.9614 0.916801 41.9614H17.6201V40.1403Z" fill="#414042"/>
<path d="M44.8556 30.8113H20.1475C19.7132 30.8113 19.3452 31.1816 19.3452 31.6186V46.3813C19.3452 46.8183 19.7132 47.1886 20.1475 47.1886H44.8556C45.2899 47.1886 45.6579 46.8183 45.6579 46.3813V31.6186C45.6519 31.1816 45.2899 30.8113 44.8556 30.8113ZM44.0533 32.4259V45.58H20.9498V32.4259H44.0533Z" fill="#414042"/>
<path d="M25.3836 33.1423H21.8547V34.7509H25.3836V33.1423Z" fill="#19AA4B"/>
<path d="M43.1424 42.8545H39.6135V44.4631H43.1424V42.8545Z" fill="#19AA4B"/>
<path d="M32.5015 33.5308C29.5034 33.5308 27.0664 35.9831 27.0664 39C27.0664 42.0169 29.5034 44.4692 32.5015 44.4692C35.4995 44.4692 37.9365 42.0169 37.9365 39C37.9365 35.9831 35.4995 33.5308 32.5015 33.5308ZM36.332 39C36.332 41.1245 34.6128 42.8545 32.5015 42.8545C30.3902 42.8545 28.671 41.1245 28.671 39C28.671 36.8754 30.3902 35.1454 32.5015 35.1454C34.6128 35.1454 36.332 36.8754 36.332 39Z" fill="#19AA4B"/>
<path d="M48.2096 34.1924C47.7753 34.1924 47.4073 34.5627 47.4073 34.9997V48.955H23.5015C23.0672 48.955 22.6992 49.3253 22.6992 49.7624C22.6992 50.1994 23.0672 50.5697 23.5015 50.5697H48.2096C48.644 50.5697 49.0119 50.1994 49.0119 49.7624V34.9936C49.0119 34.5627 48.644 34.1924 48.2096 34.1924Z" fill="#414042"/>
</g>
<defs>
<clipPath id="clip0">
<rect width="49" height="50" fill="white" transform="translate(0.0119629 0.563721)"/>
</clipPath>
</defs>
</svg>
