<svg width="24" height="20" viewBox="0 0 24 20" fill="none" xmlns="http://www.w3.org/2000/svg">
<path d="M7.73616 15.7317L6.68066 16.6661C7.01675 17.0443 7.38186 17.3955 7.77275 17.7167L8.66499 16.626C8.3322 16.353 8.02162 16.0539 7.73616 15.7317Z" fill="black"/>
<path d="M6.34948 13.5544L5.05615 14.1096C5.25612 14.5756 5.49357 15.0246 5.76615 15.4522L6.95322 14.6979C6.72172 14.3335 6.51981 13.9511 6.34948 13.5544Z" fill="black"/>
<path d="M18.5503 2.14562C17.1034 1.30673 15.4606 0.864698 13.7881 0.864258C9.03115 0.87191 5.01223 4.39474 4.38158 9.10976L1.97154 6.69972L0.976562 7.69469L4.99235 11.7105L9.00815 7.69469L8.01317 6.69972L5.83675 8.87333C6.66368 4.48609 10.8906 1.59994 15.2779 2.42687C19.6651 3.2538 22.5512 7.48074 21.7243 11.8679C20.8974 16.2551 16.6704 19.1414 12.2832 18.3144C11.3839 18.1449 10.5199 17.8239 9.72799 17.3651L9.02081 18.5817C13.5595 21.2132 19.3721 19.667 22.0036 15.1283C24.6351 10.5897 23.089 4.7771 18.5503 2.14562Z" fill="black"/>
<path d="M12.7324 4.02954V11.7698L15.8285 14.0919L16.6729 12.966L14.1397 11.0662V4.02954H12.7324Z" fill="black"/>
</svg>
