<svg width="24" height="25" viewBox="0 0 24 25" fill="none" xmlns="http://www.w3.org/2000/svg">
<path d="M21.8977 1.99897C20.5153 0.616556 18.2761 0.616556 16.8937 1.99897L2.85699 16.0314C2.76231 16.1261 2.69129 16.2444 2.65342 16.377L0.807106 23.0381C0.73136 23.3127 0.807106 23.6015 1.01067 23.8051C1.20951 24.0039 1.50303 24.0844 1.77761 24.0086L8.43854 22.1623C8.5711 22.1244 8.68945 22.0581 8.78413 21.9587L22.8161 7.92628C24.1985 6.54387 24.1985 4.30456 22.8161 2.92215L21.8977 1.99897ZM4.57548 16.5427L16.0605 5.05731L19.7626 8.75952L8.27758 20.2496L4.57548 16.5427ZM3.83222 18.0292L6.79106 20.9882L2.69603 22.1244L3.83222 18.0292ZM21.7083 6.81373L20.8751 7.64696L17.173 3.94475L18.0062 3.11152C18.7732 2.34457 20.0182 2.34457 20.7852 3.11152L21.7083 4.03471C22.4753 4.80166 22.4753 6.04677 21.7083 6.81373Z" fill="#5F5F5F"/>
</svg>
