<svg width="20" height="20" viewBox="0 0 20 20" fill="none" xmlns="http://www.w3.org/2000/svg">
<g clip-path="url(#clip0)">
<path d="M17.3213 0.864502H14.6621C14.3547 0.864502 14.1055 1.11373 14.1055 1.42114C14.1055 1.72856 14.3547 1.97778 14.6621 1.97778H17.3213C17.8399 1.97778 18.2617 2.39964 18.2617 2.91813V5.57739C18.2617 5.88481 18.5109 6.13403 18.8184 6.13403C19.1258 6.13403 19.375 5.88481 19.375 5.57739V2.91813C19.375 1.78578 18.4537 0.864502 17.3213 0.864502Z" fill="black"/>
<path d="M0.931641 6.13403C1.23905 6.13403 1.48828 5.88481 1.48828 5.57739V2.91813C1.48828 2.39964 1.91014 1.97778 2.42867 1.97778H5.08789C5.3953 1.97778 5.64453 1.72856 5.64453 1.42114C5.64453 1.11373 5.3953 0.864502 5.08789 0.864502H2.42867C1.29628 0.864502 0.375 1.78578 0.375 2.91813V5.57739C0.375 5.88481 0.624227 6.13403 0.931641 6.13403Z" fill="black"/>
<path d="M5.08789 18.7512H2.42867C1.91014 18.7512 1.48828 18.3294 1.48828 17.8109V15.1516C1.48828 14.8442 1.23905 14.595 0.931641 14.595C0.624227 14.595 0.375 14.8442 0.375 15.1516V17.8109C0.375 18.9432 1.29628 19.8645 2.42867 19.8645H5.08789C5.3953 19.8645 5.64453 19.6153 5.64453 19.3079C5.64453 19.0004 5.3953 18.7512 5.08789 18.7512Z" fill="black"/>
<path d="M18.8184 14.595C18.5109 14.595 18.2617 14.8442 18.2617 15.1516V17.8109C18.2617 18.3294 17.8399 18.7512 17.3213 18.7512H14.6621C14.3547 18.7512 14.1055 19.0004 14.1055 19.3079C14.1055 19.6153 14.3547 19.8645 14.6621 19.8645H17.3213C18.4537 19.8645 19.375 18.9432 19.375 17.8109V15.1516C19.375 14.8442 19.1258 14.595 18.8184 14.595Z" fill="black"/>
<path d="M16.9629 16.8958V10.9583C16.9629 10.6508 16.7137 10.4016 16.4062 10.4016H10.4688C10.1613 10.4016 9.91211 10.6508 9.91211 10.9583V16.8958C9.91211 17.2032 10.1613 17.4524 10.4688 17.4524H16.4062C16.7137 17.4524 16.9629 17.2032 16.9629 16.8958ZM15.8496 16.3391H11.0254V11.5149H15.8496V16.3391Z" fill="black"/>
<path d="M11.9531 9.13989H16.1094C16.4168 9.13989 16.666 8.89067 16.666 8.58325V4.427C16.666 4.11959 16.4168 3.87036 16.1094 3.87036H11.9531C11.6457 3.87036 11.3965 4.11959 11.3965 4.427V8.58325C11.3965 8.89067 11.6457 9.13989 11.9531 9.13989ZM12.5098 4.98364H15.5527V8.02661H12.5098V4.98364Z" fill="black"/>
<path d="M8.6875 3.27661H3.34375C3.03634 3.27661 2.78711 3.52584 2.78711 3.83325V9.177C2.78711 9.48442 3.03634 9.73364 3.34375 9.73364H8.6875C8.99491 9.73364 9.24414 9.48442 9.24414 9.177V3.83325C9.24414 3.52584 8.99491 3.27661 8.6875 3.27661ZM8.13086 8.62036H3.90039V4.38989H8.13086V8.62036Z" fill="black"/>
<path d="M8.09375 16.3391H3.90039V11.552C3.90039 11.2446 3.65116 10.9954 3.34375 10.9954C3.03634 10.9954 2.78711 11.2446 2.78711 11.552V16.8958C2.78711 17.2032 3.03634 17.4524 3.34375 17.4524H8.09375C8.40116 17.4524 8.65039 17.2032 8.65039 16.8958C8.65039 16.5883 8.40116 16.3391 8.09375 16.3391Z" fill="black"/>
<path d="M6.27539 14.5208V11.552C6.27539 11.2446 6.02616 10.9954 5.71875 10.9954C5.41134 10.9954 5.16211 11.2446 5.16211 11.552V14.5208C5.16211 14.8282 5.41134 15.0774 5.71875 15.0774C6.02616 15.0774 6.27539 14.8282 6.27539 14.5208Z" fill="black"/>
<path d="M8.09375 10.9954C7.78634 10.9954 7.53711 11.2446 7.53711 11.552V14.5208C7.53711 14.8282 7.78634 15.0774 8.09375 15.0774C8.40116 15.0774 8.65039 14.8282 8.65039 14.5208V11.552C8.65039 11.2446 8.40116 10.9954 8.09375 10.9954Z" fill="black"/>
<path d="M12.8438 14.4836H14.0312C14.3387 14.4836 14.5879 14.2344 14.5879 13.927C14.5879 13.6196 14.3387 13.3704 14.0312 13.3704H12.8438C12.5363 13.3704 12.2871 13.6196 12.2871 13.927C12.2871 14.2344 12.5363 14.4836 12.8438 14.4836Z" fill="black"/>
<path d="M6.01562 7.35864C6.32304 7.35864 6.57227 7.10942 6.57227 6.802V6.20825C6.57227 5.90084 6.32304 5.65161 6.01562 5.65161C5.70821 5.65161 5.45898 5.90084 5.45898 6.20825V6.802C5.45898 7.10942 5.70821 7.35864 6.01562 7.35864Z" fill="black"/>
</g>
<defs>
<clipPath id="clip0">
<rect width="19" height="19" fill="white" transform="translate(0.375 0.864502)"/>
</clipPath>
</defs>
</svg>
