<svg width="20" height="20" viewBox="0 0 20 20" fill="none" xmlns="http://www.w3.org/2000/svg">
<path d="M18.2649 8.12399H16.5174C16.4169 8.12351 16.3187 8.09341 16.2352 8.03744C16.1516 7.98147 16.0864 7.90212 16.0478 7.8093C16.0091 7.71649 15.9987 7.61434 16.0177 7.51561C16.0368 7.41689 16.0846 7.32598 16.155 7.25426L17.3912 6.01811C17.4979 5.91328 17.5823 5.78783 17.639 5.64939C17.6958 5.51095 17.7238 5.36241 17.7213 5.2128C17.7231 5.06329 17.6948 4.91495 17.6381 4.77661C17.5813 4.63827 17.4974 4.51274 17.3912 4.40749L15.8168 2.83311C15.6021 2.62948 15.3175 2.51597 15.0215 2.51597C14.7256 2.51597 14.441 2.62948 14.2263 2.83311L12.9942 4.06523C12.9253 4.14018 12.8344 4.19143 12.7346 4.21168C12.6348 4.23192 12.5312 4.22013 12.4385 4.17798C12.3436 4.14196 12.2623 4.07719 12.206 3.99273C12.1497 3.90827 12.1212 3.80833 12.1244 3.70687V1.98351C12.1244 1.68557 12.0061 1.39982 11.7954 1.18915C11.5847 0.978466 11.299 0.860107 11.001 0.860107H8.77437C8.47642 0.860107 8.19068 0.978466 7.98 1.18915C7.76932 1.39982 7.65096 1.68557 7.65096 1.98351V3.73103C7.65303 3.83224 7.62404 3.93166 7.56788 4.01589C7.51173 4.10012 7.43111 4.16512 7.33689 4.20214C7.24449 4.24416 7.14127 4.25627 7.04165 4.23678C6.94203 4.21729 6.85098 4.16717 6.78123 4.09342L5.54508 2.85727C5.33105 2.65391 5.04709 2.54052 4.75185 2.54052C4.45661 2.54052 4.17265 2.65391 3.95862 2.85727L2.38827 4.43165C2.2815 4.53648 2.19717 4.66193 2.14041 4.80037C2.08365 4.93881 2.05565 5.08735 2.05809 5.23696C2.05634 5.38647 2.08467 5.5348 2.14139 5.67315C2.19811 5.81149 2.28207 5.93702 2.38827 6.04227L3.62442 7.27841C3.69667 7.34914 3.74574 7.44013 3.76516 7.53935C3.78457 7.63857 3.7734 7.74134 3.73314 7.83408C3.69711 7.92898 3.63235 8.01026 3.54789 8.06657C3.46343 8.12288 3.36349 8.1514 3.26203 8.14815H1.51048C1.21459 8.1449 0.929369 8.25852 0.716764 8.46434C0.504159 8.67016 0.381346 8.95155 0.375 9.24739V11.4741C0.375 11.772 0.493359 12.0578 0.704038 12.2684C0.914717 12.4791 1.20046 12.5975 1.49841 12.5975H3.24592C3.34647 12.5979 3.44465 12.6281 3.52818 12.684C3.61171 12.74 3.67688 12.8193 3.71556 12.9122C3.75423 13.005 3.76468 13.1071 3.74561 13.2059C3.72653 13.3046 3.67878 13.3955 3.60831 13.4672L2.38827 14.6993C2.28064 14.804 2.19508 14.9292 2.13666 15.0675C2.07824 15.2059 2.04814 15.3545 2.04814 15.5046C2.04814 15.6548 2.07824 15.8034 2.13666 15.9417C2.19508 16.0801 2.28064 16.2053 2.38827 16.3099L3.96265 17.8843C4.17476 18.0914 4.45944 18.2073 4.75588 18.2073C5.05231 18.2073 5.337 18.0914 5.54911 17.8843L6.78525 16.6482C6.85698 16.5777 6.94789 16.53 7.04661 16.5109C7.14534 16.4918 7.24749 16.5023 7.3403 16.5409C7.43312 16.5796 7.51247 16.6448 7.56844 16.7283C7.62441 16.8118 7.65452 16.91 7.65499 17.0106V18.7581C7.65605 19.0553 7.77488 19.34 7.98545 19.5499C8.19601 19.7597 8.48114 19.8775 8.77839 19.8775H11.0051C11.3023 19.8775 11.5875 19.7597 11.798 19.5499C12.0086 19.34 12.1274 19.0553 12.1285 18.7581V16.9904C12.1289 16.8899 12.1591 16.7917 12.215 16.7082C12.271 16.6247 12.3503 16.5595 12.4432 16.5208C12.536 16.4821 12.6381 16.4717 12.7369 16.4907C12.8356 16.5098 12.9265 16.5576 12.9982 16.628L14.2303 17.8642C14.445 18.0678 14.7297 18.1813 15.0256 18.1813C15.3215 18.1813 15.6061 18.0678 15.8208 17.8642L17.3952 16.2898C17.5001 16.1838 17.583 16.0581 17.639 15.9198C17.6949 15.7816 17.7229 15.6336 17.7213 15.4845C17.7236 15.3353 17.6959 15.1871 17.6399 15.0488C17.5839 14.9105 17.5007 14.7848 17.3952 14.6792L16.159 13.4431C16.0886 13.3713 16.0408 13.2804 16.0218 13.1817C16.0027 13.083 16.0131 12.9808 16.0518 12.888C16.0905 12.7952 16.1557 12.7158 16.2392 12.6599C16.3227 12.6039 16.4209 12.5738 16.5214 12.5733H18.269C18.5662 12.5723 18.8509 12.4534 19.0607 12.2429C19.2705 12.0323 19.3883 11.7472 19.3883 11.4499V9.24739C19.3883 8.94945 19.27 8.66371 19.0593 8.45303C18.8486 8.24235 18.5629 8.12399 18.2649 8.12399ZM15.1081 12.521C14.9893 12.7992 14.9572 13.1068 15.0161 13.4035C15.075 13.7002 15.2222 13.9722 15.4383 14.1839L16.6744 15.4201C16.6946 15.4404 16.7059 15.4679 16.7059 15.4966C16.7059 15.5252 16.6946 15.5527 16.6744 15.5731L15.1001 17.1475C15.0792 17.1667 15.0519 17.1774 15.0236 17.1774C14.9952 17.1774 14.9679 17.1667 14.9471 17.1475L13.7109 15.9113C13.498 15.6973 13.2263 15.5514 12.9303 15.4922C12.6343 15.433 12.3274 15.4631 12.0485 15.5788C11.7697 15.6945 11.5316 15.8905 11.3644 16.1418C11.1973 16.3932 11.1086 16.6886 11.1098 16.9904V18.738C11.1098 18.7668 11.0983 18.7944 11.0779 18.8148C11.0575 18.8352 11.0299 18.8467 11.001 18.8467H8.77437C8.74553 18.8467 8.71788 18.8352 8.69749 18.8148C8.6771 18.7944 8.66565 18.7668 8.66565 18.738V16.9904C8.66679 16.6886 8.57815 16.3932 8.41098 16.1418C8.24382 15.8905 8.00569 15.6945 7.72686 15.5788C7.44803 15.4631 7.14111 15.433 6.8451 15.4922C6.5491 15.5514 6.27738 15.6973 6.0645 15.9113L4.82836 17.1475C4.808 17.1676 4.7805 17.1789 4.75185 17.1789C4.7232 17.1789 4.6957 17.1676 4.67535 17.1475L3.10097 15.5932C3.08054 15.573 3.06895 15.5455 3.06876 15.5167C3.06915 15.4868 3.08063 15.4581 3.10097 15.4362L4.33712 14.2041C4.56199 13.9926 4.71744 13.7179 4.78295 13.4162C4.84846 13.1146 4.82096 12.8002 4.70406 12.5145C4.58717 12.2288 4.38638 11.9852 4.12821 11.816C3.87003 11.6468 3.56661 11.5599 3.258 11.5667H1.51048C1.48165 11.5667 1.454 11.5552 1.43361 11.5348C1.41322 11.5145 1.40177 11.4868 1.40177 11.458V9.24739C1.40177 9.21856 1.41322 9.19091 1.43361 9.17052C1.454 9.15013 1.48165 9.13868 1.51048 9.13868H3.258C3.55901 9.1379 3.85307 9.04811 4.10318 8.88063C4.35329 8.71314 4.54828 8.47543 4.66362 8.1974C4.77897 7.91937 4.80951 7.61343 4.75142 7.31808C4.69332 7.02273 4.54917 6.75116 4.33712 6.53753L3.10097 5.30138C3.08081 5.28102 3.06949 5.25353 3.06949 5.22488C3.06949 5.19623 3.08081 5.16873 3.10097 5.14837L4.67535 3.574C4.6957 3.55383 4.7232 3.54252 4.75185 3.54252C4.7805 3.54252 4.808 3.55383 4.82836 3.574L6.0645 4.80612C6.27714 5.0199 6.54849 5.1657 6.84411 5.22504C7.13974 5.28437 7.44633 5.25456 7.72499 5.13938C8.00365 5.02421 8.24183 4.82886 8.4093 4.57812C8.57677 4.32739 8.66599 4.03256 8.66565 3.73103V1.98351C8.66565 1.95468 8.6771 1.92703 8.69749 1.90664C8.71788 1.88625 8.74553 1.8748 8.77437 1.8748H11.001C11.0299 1.8748 11.0575 1.88625 11.0779 1.90664C11.0983 1.92703 11.1098 1.95468 11.1098 1.98351V3.73103C11.1086 4.0329 11.1973 4.32829 11.3644 4.57964C11.5316 4.831 11.7697 5.02698 12.0485 5.14265C12.3274 5.25832 12.6343 5.28847 12.9303 5.22927C13.2263 5.17006 13.498 5.02417 13.7109 4.81015L14.943 3.574C14.9645 3.55447 14.9925 3.54366 15.0215 3.54366C15.0506 3.54366 15.0786 3.55447 15.1001 3.574L16.6744 5.14837C16.6946 5.16873 16.7059 5.19623 16.7059 5.22488C16.7059 5.25353 16.6946 5.28102 16.6744 5.30138L15.4383 6.53753C15.2221 6.75052 15.0743 7.02314 15.0138 7.32055C14.9533 7.61796 14.9828 7.92666 15.0987 8.20719C15.2145 8.48771 15.4114 8.72732 15.6641 8.8954C15.9168 9.06348 16.2139 9.15238 16.5174 9.15076H18.2649C18.2935 9.15176 18.3207 9.16322 18.3414 9.18297C18.351 9.19319 18.3584 9.20522 18.3633 9.21836C18.3681 9.23151 18.3703 9.24548 18.3696 9.25947V11.4862C18.3696 11.5143 18.3587 11.5414 18.3392 11.5616C18.3197 11.5819 18.2931 11.5938 18.2649 11.5949H16.5174C16.2168 11.5904 15.9218 11.6764 15.6705 11.8415C15.4193 12.0066 15.2233 12.2433 15.1081 12.521Z" fill="black"/>
<path d="M9.88466 7.08496C9.23721 7.08496 8.6043 7.27695 8.06596 7.63666C7.52762 7.99636 7.10804 8.50763 6.86027 9.1058C6.6125 9.70397 6.54767 10.3622 6.67399 10.9972C6.8003 11.6322 7.11208 12.2155 7.56989 12.6733C8.02771 13.1311 8.61101 13.4429 9.24602 13.5692C9.88103 13.6955 10.5392 13.6307 11.1374 13.3829C11.7356 13.1352 12.2468 12.7156 12.6065 12.1772C12.9663 11.6389 13.1582 11.006 13.1582 10.3585C13.1572 9.49066 12.8119 8.65863 12.1983 8.04495C11.5846 7.43126 10.7525 7.08603 9.88466 7.08496ZM12.1436 10.3585C12.1436 10.8053 12.0111 11.242 11.7629 11.6135C11.5147 11.985 11.1619 12.2745 10.7491 12.4455C10.3363 12.6165 9.88216 12.6612 9.44398 12.574C9.00579 12.4869 8.6033 12.2717 8.28739 11.9558C7.97148 11.6399 7.75634 11.2374 7.66918 10.7992C7.58202 10.361 7.62675 9.90686 7.79772 9.4941C7.96869 9.08134 8.25822 8.72855 8.62969 8.48034C9.00116 8.23213 9.4379 8.09965 9.88466 8.09965C10.4834 8.10071 11.0574 8.33905 11.4808 8.76244C11.9042 9.18583 12.1425 9.75977 12.1436 10.3585Z" fill="black"/>
</svg>
