<svg width="19" height="22" viewBox="0 0 19 22" fill="none" xmlns="http://www.w3.org/2000/svg">
<path d="M14.7654 0.457031C12.9356 0.457031 11.438 1.95462 11.438 3.78439C11.438 4.15805 11.4998 4.51935 11.6148 4.85538L5.91667 8.55707C5.30646 7.88011 4.42971 7.44449 3.45236 7.44449C1.62261 7.44449 0.125 8.94206 0.125 10.7718C0.125 12.6016 1.62261 14.0992 3.45236 14.0992C4.43373 14.0992 5.31661 13.6684 5.92708 12.9866L11.6148 16.6883C11.4978 17.0269 11.438 17.3823 11.438 17.7593C11.438 19.5891 12.9356 21.0867 14.7654 21.0867C16.5951 21.0867 18.0927 19.5891 18.0927 17.7593C18.0927 15.9295 16.5951 14.4319 14.7654 14.4319C13.788 14.4319 12.9113 14.8676 12.3011 15.5445L6.60297 11.8429C6.71793 11.5068 6.77972 11.1455 6.77972 10.7718C6.77972 10.3948 6.71993 9.90807 6.60297 9.56947L12.2907 5.99916C12.9011 6.68098 13.784 7.11175 14.7654 7.11175C16.5951 7.11175 18.0927 5.61417 18.0927 3.78439C18.0927 1.95462 16.5951 0.457031 14.7654 0.457031ZM14.7654 1.78797C15.8758 1.78797 16.7618 2.67392 16.7618 3.78439C16.7618 4.89486 15.8758 5.78081 14.7654 5.78081C13.6549 5.78081 12.769 4.89486 12.769 3.78439C12.769 2.67392 13.6549 1.78797 14.7654 1.78797ZM3.45236 8.77543C4.5628 8.77543 5.44878 9.66136 5.44878 10.7718C5.44878 11.8823 4.5628 12.7683 3.45236 12.7683C2.34192 12.7683 1.45594 11.8823 1.45594 10.7718C1.45594 9.66136 2.34192 8.77543 3.45236 8.77543ZM14.7654 15.7629C15.8758 15.7629 16.7618 16.6488 16.7618 17.7593C16.7618 18.8698 15.8758 19.7557 14.7654 19.7557C13.6549 19.7557 12.769 18.8698 12.769 17.7593C12.769 16.6488 13.6549 15.7629 14.7654 15.7629Z" fill="black"/>
</svg>
